<svg width="221" height="61" viewBox="0 0 221 61" fill="none" xmlns="http://www.w3.org/2000/svg">
<path d="M210.171 53.8825C210.171 53.8825 210.473 54.1062 210.91 53.8678C210.008 55.0823 209.43 53.065 208.767 53.4379C208.75 53.3458 208.71 53.2594 208.647 53.191C209.49 52.3256 210.278 53.9678 211.326 53.0261C211.326 53.0261 211.17 54.0604 210.171 53.8825ZM206.525 51.7047C207.199 49.3655 205.195 49.2045 205.195 49.2045C205.195 49.2045 206.215 48.7746 206.828 49.6586C206.54 49.4553 206.223 49.4592 206.223 49.4592C206.223 49.4592 207.837 50.271 206.525 51.7047ZM203.508 52.2182C203.508 52.2182 203.65 52.312 203.817 52.4792C203.817 52.4792 203.625 52.3905 203.584 52.4758C203.544 52.5611 203.731 53.0893 203.731 53.0893C203.426 53.2469 203.839 53.304 203.839 53.304C203.839 53.304 203.88 53.5254 203.786 53.6887C203.786 53.6887 203.595 53.5475 203.51 53.3531C203.426 53.1588 203.308 52.3527 203.508 52.2182ZM172.605 49.0062V51.433C172.605 51.433 171.18 51.755 167.412 50.654C167.412 50.654 168.616 49.9371 170.121 49.4491C170.264 49.4027 170.41 49.3581 170.558 49.3169C170.706 49.2751 170.857 49.2367 171.007 49.2016C171.159 49.1666 171.311 49.1355 171.464 49.109C171.54 49.0954 171.617 49.0836 171.693 49.0723C171.999 49.0282 172.305 49.0039 172.605 49.0062M214.397 40.8834C214.378 40.7517 214.22 40.6952 214.122 40.7845L212.01 42.7221C211.624 43.0763 211.415 43.5831 211.44 44.105L212.189 50.5433C212.198 50.6167 212.14 50.6806 212.066 50.6806H209.924C208.639 50.6049 208.521 49.7626 208.521 49.7626C208.521 49.7626 207.839 46.7697 205.867 46.9087C204.188 47.0267 202.138 49.6767 201.567 50.4602C201.468 50.5964 201.31 50.6766 201.141 50.6766L198.352 50.6783C197.647 50.6789 196.971 50.3964 196.479 49.8936C196.008 49.4118 195.551 48.9073 195.085 48.4096C194.094 47.3476 193.066 46.3189 191.796 45.6195C190.614 44.9682 188.991 44.6948 187.714 45.2874C186.556 45.8252 185.774 46.9561 185.403 48.1458C185.356 48.2972 185.521 48.4243 185.648 48.3368C186.341 47.8611 187.116 47.5781 187.886 47.5267C187.97 47.521 188.056 47.5182 188.141 47.5182C189.07 47.5182 190.036 47.8458 191.094 48.5192C191.812 48.9768 192.467 49.5157 193.04 50.1213C193.147 50.2343 193.315 50.4173 193.46 50.5811C193.495 50.6201 193.467 50.6817 193.414 50.6817L191.92 50.6828L182.725 50.6896C181.89 50.6902 181.713 50.5715 181.732 49.7394L181.918 40.9613C181.922 40.8161 181.748 40.7387 181.641 40.8376L179.583 42.7509C179.197 43.1097 178.988 43.6232 179.013 44.1525L179.732 50.4682C179.746 50.5868 179.653 50.6907 179.533 50.6907C179.533 50.6907 175.945 50.6907 175.945 50.689C175.141 50.689 174.983 50.441 174.983 49.6394V44.2056C174.983 44.0621 174.812 43.9875 174.706 44.0853L172.91 45.7416C172.715 45.9212 172.605 46.1737 172.605 46.4381V46.9143C169.435 47.8956 167.107 49.1395 166.019 49.7225C165.654 49.9185 165.426 50.3009 165.426 50.7178V54.0717L168.814 55.2405C168.923 55.2783 169.037 55.297 169.152 55.297C169.976 55.297 170.596 55.0117 171.236 54.4897L172.613 53.3673C172.699 54.4474 173.605 55.297 174.711 55.297H176.439H200.459C200.745 55.297 200.978 55.0693 200.983 54.7846L201.003 53.6746C201.005 53.5904 201.099 53.5413 201.169 53.5881L205.617 56.5341C205.994 56.7833 206.494 56.7381 206.818 56.4245L207.788 55.4896C207.64 55.371 207.49 55.2326 207.383 55.0705C207.105 54.649 207.182 54.1593 207.032 54.0129C206.881 53.8666 206.393 53.9678 205.717 53.6864C205.146 53.4492 204.812 53.0696 204.723 52.9571C204.709 52.9402 204.69 52.9272 204.668 52.9249C204.367 52.8939 203.566 51.9443 203.408 51.977C203.244 52.0109 203.227 52.734 203.227 52.734C202.876 52.7792 203.256 52.9797 203.256 52.9797C203.256 52.9797 203.218 53.2085 203.069 53.3339C203.069 53.3339 202.938 53.1238 202.925 52.9057C202.912 52.6877 203.12 51.7652 203.361 51.7053C203.603 51.6454 203.865 51.9584 204.495 52.0482C204.308 51.2952 205.771 51.0218 205.218 50.1473C205.218 50.1473 205.152 50.4235 204.774 50.3608C204.774 50.3608 204.508 50.4506 204.37 50.7128C204.37 50.7128 204.167 50.6766 204.142 50.471C204.142 50.471 204.393 49.8773 204.829 49.3372C204.829 49.3372 204.82 49.1355 204.845 48.9209C205.029 49.057 205.071 49.2762 205.071 49.2762C207.186 49.623 206.371 51.8635 206.371 51.8635C206.371 51.8635 206.448 52.39 207.451 52.7221C207.451 52.7221 208.397 52.812 208.62 53.4588C208.715 53.7339 208.639 54.0186 208.522 54.2745C208.471 54.3858 208.385 54.4846 208.367 54.6089C208.347 54.7326 208.4 54.8597 208.495 54.9417L208.669 55.084C208.837 55.2207 209.047 55.2953 209.264 55.2953H213.88C214.069 55.2953 214.223 55.1422 214.223 54.9535V46.659C214.223 46.481 214.289 46.3099 214.408 46.1782L214.802 45.7421C214.944 45.5851 215.01 45.3738 214.981 45.1648L214.397 40.8828V40.8834Z" fill="#E30F18"/>
<path d="M220.102 45.1656L219.517 40.8836C219.499 40.752 219.341 40.6949 219.243 40.7848L217.131 42.7224C216.745 43.0766 216.536 43.5833 216.561 44.1053L217.401 55.2865C217.415 55.4814 217.67 55.5464 217.776 55.3825L219.02 53.4669C219.126 53.3042 219.184 53.1156 219.189 52.9218L219.338 46.6502C219.342 46.4779 219.407 46.3129 219.523 46.1847L219.923 45.7424C220.065 45.5853 220.13 45.3741 220.101 45.165" fill="#E30F18"/>
<path d="M189.201 56.9134C189.135 56.8479 189.028 56.8479 188.963 56.9134L187.252 58.6177C187.187 58.6833 187.187 58.7895 187.252 58.8544L188.963 60.5588C189.029 60.6243 189.136 60.6243 189.201 60.5588L190.911 58.8544C190.977 58.7889 190.977 58.6827 190.911 58.6177L189.201 56.9134Z" fill="#E30F18"/>
<path d="M167.67 44.5856C167.698 44.6128 167.741 44.6128 167.768 44.5856L169.146 43.2124C169.173 43.1852 169.217 43.1852 169.244 43.2124L170.622 44.5856C170.649 44.6128 170.693 44.6128 170.72 44.5856L172.323 42.9881C172.35 42.961 172.35 42.9175 172.323 42.8904L170.72 41.2928C170.692 41.2657 170.649 41.2657 170.622 41.2928L169.244 42.6661C169.217 42.6932 169.173 42.6932 169.146 42.6661L167.768 41.2928C167.741 41.2657 167.697 41.2657 167.67 41.2928L166.067 42.8904C166.04 42.9175 166.04 42.961 166.067 42.9881L167.67 44.5856Z" fill="#E30F18"/>
<path d="M170.121 49.4496C170.265 49.4033 170.41 49.3586 170.559 49.3174C170.411 49.3586 170.265 49.4033 170.121 49.4496Z" fill="#E30F18"/>
<path d="M172.603 49.007C172.303 49.0053 171.997 49.0296 171.691 49.0731C171.998 49.029 172.303 49.0047 172.603 49.007Z" fill="#E30F18"/>
<path d="M0.334994 32.0953L2.90808 31.3033C3.00048 31.275 3.07474 31.2061 3.11102 31.1168L13.0264 6.32904C13.0723 6.21379 13.1817 6.13527 13.3064 6.12906L19.499 5.13255C19.6549 5.09188 19.8171 5.17266 19.8771 5.3218L30.4019 31.3931C30.4438 31.497 30.5374 31.5716 30.6485 31.5891L33.4908 32.0359C33.6462 32.0602 33.7607 32.1941 33.7607 32.3506V34.09C33.7607 34.2662 33.6173 34.4086 33.441 34.4086H18.4021C18.2253 34.4086 18.0824 34.2657 18.0824 34.09V32.2687C18.0824 32.11 18.1997 31.9755 18.3573 31.9529L21.3737 31.5281C21.5744 31.4998 21.6985 31.2948 21.63 31.1044L19.7609 25.9439C19.715 25.8174 19.5948 25.7332 19.4599 25.7332H9.29911C9.1642 25.7332 9.04345 25.818 8.9981 25.9445L7.3326 30.5762C7.26797 30.7553 7.37455 30.9502 7.56048 30.9937L11.5564 31.9331C11.701 31.967 11.803 32.0953 11.803 32.2433V34.0888C11.803 34.2651 11.6596 34.4075 11.4833 34.4075H0.429097C0.252229 34.4075 0.109375 34.2645 0.109375 34.0888V32.3986C0.109375 32.2591 0.200643 32.1354 0.334994 32.0941V32.0953ZM10.6999 22.4104H18.0178C18.2389 22.4104 18.3936 22.1918 18.3188 21.9839L14.4011 11.1025H14.358L10.3989 21.9828C10.3235 22.1907 10.4777 22.4098 10.6993 22.4098L10.6999 22.4104Z" fill="#E30F18"/>
<path d="M36.4564 32.0279L38.8821 31.5658C39.0329 31.537 39.1417 31.4059 39.1417 31.2528V6.73564C39.1417 6.5882 39.0403 6.45997 38.8963 6.42551L36.3119 5.80919C36.1679 5.77473 36.0664 5.64649 36.0664 5.49905V3.78849C36.0664 3.62749 36.1866 3.49191 36.347 3.47214L46.2748 2.25532C46.4653 2.23216 46.6337 2.38017 46.6337 2.57167V31.25C46.6337 31.4042 46.7442 31.5364 46.8967 31.5635L49.4891 32.0296C49.6416 32.0567 49.7521 32.1889 49.7521 32.3431V34.0887C49.7521 34.265 49.6087 34.4073 49.4324 34.4073H36.5159C36.3391 34.4073 36.1962 34.2644 36.1962 34.0887V32.3403C36.1962 32.1872 36.3051 32.0562 36.4559 32.0273L36.4564 32.0279Z" fill="#E30F18"/>
<path d="M60.303 31.9788L63.5365 31.2292C63.6799 31.1958 63.7819 31.0698 63.7836 30.923L64.0796 9.00736C64.0818 8.84863 63.9662 8.71248 63.8092 8.68819L60.456 8.16848C60.3001 8.14418 60.1856 8.01087 60.1856 7.85382V6.07154C60.1856 5.89529 60.3291 5.75293 60.5054 5.75293H74.4439C74.5697 5.75293 74.6842 5.82693 74.7358 5.94104L81.4925 20.9569C81.6076 21.2122 81.9738 21.2065 82.0804 20.9473L87.8206 6.02522C87.8858 5.87438 87.9782 5.75293 88.1369 5.75293H101.703C101.88 5.75293 102.023 5.89585 102.023 6.07154V7.85778C102.023 8.01313 101.91 8.14588 101.757 8.17186L98.7393 8.68537C98.5846 8.71192 98.4723 8.8458 98.4735 9.00171L98.6424 31.2427C98.6435 31.4009 98.7609 31.5342 98.9185 31.5562L102.136 31.9986C102.294 32.0206 102.412 32.155 102.412 32.3143V34.0915C102.412 34.2678 102.269 34.4101 102.092 34.4101H86.7509C86.574 34.4101 86.4312 34.2672 86.4312 34.0915V32.2737C86.4312 32.1132 86.5508 31.9782 86.7101 31.9579L90.1817 31.511C90.3404 31.4907 90.4595 31.3563 90.4606 31.197L90.5796 11.411C90.5819 11.0642 90.1051 10.9642 89.9663 11.2822L80.6994 33.7147C80.6569 33.8464 80.5339 33.9351 80.395 33.9351H78.0912C77.9512 33.9351 77.8276 33.8447 77.7856 33.7114L68.359 10.9891C68.2206 10.675 67.7507 10.7704 67.7462 11.1133L67.5075 30.5722C67.5058 30.7219 67.6084 30.8524 67.7547 30.8863L72.8436 32.0652C72.9887 32.0985 73.0907 32.2273 73.0907 32.3753V34.091C73.0907 34.2672 72.9473 34.4096 72.771 34.4096H60.3744C60.1975 34.4096 60.0547 34.2667 60.0547 34.091V32.2895C60.0547 32.1415 60.1573 32.0127 60.3018 31.9793L60.303 31.9788Z" fill="#E30F18"/>
<path d="M104.059 29.0137C104.059 25.3451 106.917 23.8346 110.988 22.885L116.24 21.6896C116.385 21.6563 116.489 21.5275 116.489 21.3789V20.2519C116.489 17.4472 115.579 15.1164 112.894 15.1164C112.345 15.1164 111.519 15.2706 111.04 15.422C110.907 15.4643 110.815 15.5864 110.815 15.7265V19.9068C110.815 20.0373 110.738 20.1548 110.616 20.2022C109.882 20.4886 108.833 20.8129 107.567 20.8129C105.964 20.8129 104.839 20.0361 104.839 18.3098C104.839 15.6773 109.949 12.3975 115.622 12.3975C121.859 12.3975 123.981 15.0299 123.981 20.2954V29.7475C123.981 31.301 124.457 31.4309 125.757 31.4309H126.996C127.173 31.4309 127.316 31.5738 127.316 31.7495V33.042C127.316 33.1663 127.245 33.2776 127.132 33.3301C126.378 33.6804 123.443 34.9701 121.122 34.9701C118.091 34.9701 117.224 33.2437 116.748 30.9987H116.575C115.232 32.8545 113.803 34.9701 110.468 34.9701C106.874 34.9701 104.059 32.5528 104.059 29.0137ZM116.489 29.6108V24.2481C116.489 24.0391 116.29 23.8866 116.087 23.9397L114.842 24.2662C112.027 25.0429 111.291 26.1219 111.291 27.5895C111.291 29.5746 112.677 30.74 114.236 30.74C115.202 30.74 115.943 30.2559 116.391 29.8413C116.455 29.7819 116.488 29.6983 116.488 29.6108H116.489Z" fill="#E30F18"/>
<path d="M126.812 44.703C126.748 44.5567 126.803 44.3883 126.938 44.3025C128.915 43.0489 129.8 38.7985 129.8 32.0348V17.581C129.8 17.4279 129.691 17.2968 129.54 17.268L127.114 16.8053C126.964 16.7765 126.855 16.6455 126.855 16.4924V14.6429C126.855 14.4915 126.962 14.361 127.111 14.3305L136.909 12.3454C137.107 12.3052 137.293 12.4561 137.293 12.6578V32.0343C137.293 36.3502 136.21 38.5082 134.824 40.5362C132.171 44.4635 128.093 44.8555 127.115 44.8922C126.984 44.8973 126.865 44.8216 126.813 44.7024L126.812 44.703Z" fill="#E30F18"/>
<path d="M139.73 29.0137C139.73 25.3451 142.589 23.8346 146.66 22.885L151.912 21.6896C152.057 21.6563 152.161 21.5275 152.161 21.3789V20.2519C152.161 17.4472 151.251 15.1164 148.566 15.1164C148.017 15.1164 147.191 15.2706 146.712 15.422C146.578 15.4643 146.487 15.5864 146.487 15.7265V19.9068C146.487 20.0373 146.409 20.1548 146.288 20.2022C145.554 20.4886 144.505 20.8129 143.239 20.8129C141.636 20.8129 140.511 20.0361 140.511 18.3098C140.511 15.6773 145.621 12.3975 151.294 12.3975C157.531 12.3975 159.653 15.0299 159.653 20.2954V29.7475C159.653 31.301 160.129 31.4309 161.428 31.4309H162.668C162.845 31.4309 162.987 31.5738 162.987 31.7495V33.042C162.987 33.1663 162.917 33.2776 162.804 33.3301C162.05 33.6804 159.115 34.9701 156.794 34.9701C153.763 34.9701 152.896 33.2437 152.42 30.9987H152.247C150.904 32.8545 149.475 34.9701 146.14 34.9701C142.546 34.9701 139.73 32.5528 139.73 29.0137ZM152.161 29.6108V24.2481C152.161 24.0391 151.962 23.8866 151.759 23.9397L150.514 24.2662C147.699 25.0429 146.963 26.1219 146.963 27.5895C146.963 29.5746 148.349 30.74 149.908 30.74C150.874 30.74 151.615 30.2559 152.062 29.8413C152.126 29.7819 152.16 29.6983 152.16 29.6108H152.161Z" fill="#E30F18"/>
<path d="M165.816 32.0279L168.241 31.5658C168.392 31.537 168.501 31.4059 168.501 31.2528V6.73564C168.501 6.5882 168.4 6.45997 168.256 6.42551L165.671 5.80919C165.527 5.77473 165.426 5.64649 165.426 5.49905V3.78849C165.426 3.62749 165.546 3.49191 165.706 3.47214L175.634 2.25532C175.825 2.23216 175.993 2.38017 175.993 2.57167V31.25C175.993 31.4042 176.104 31.5364 176.256 31.5635L178.848 32.0296C179.001 32.0567 179.111 32.1889 179.111 32.3431V34.0887C179.111 34.265 178.968 34.4073 178.792 34.4073H165.875C165.698 34.4073 165.556 34.2644 165.556 34.0887V32.3403C165.556 32.1872 165.664 32.0562 165.815 32.0273L165.816 32.0279Z" fill="#E30F18"/>
<path d="M181.937 32.0279L184.363 31.5658C184.513 31.537 184.622 31.4059 184.622 31.2528V6.73564C184.622 6.5882 184.521 6.45997 184.377 6.42551L181.792 5.80919C181.648 5.77473 181.547 5.64649 181.547 5.49905V3.78849C181.547 3.62749 181.667 3.49192 181.827 3.47214L191.755 2.25532C191.946 2.23216 192.114 2.38017 192.114 2.57167V31.25C192.114 31.4042 192.225 31.5364 192.377 31.5635L194.97 32.0296C195.122 32.0567 195.233 32.1889 195.233 32.3431V34.0887C195.233 34.265 195.089 34.4073 194.913 34.4073H181.996C181.82 34.4073 181.677 34.2644 181.677 34.0887V32.3403C181.677 32.1872 181.786 32.0567 181.937 32.0279Z" fill="#E30F18"/>
<path d="M196.852 29.0137C196.852 25.3451 199.71 23.8346 203.781 22.885L209.033 21.6896C209.178 21.6563 209.282 21.5275 209.282 21.3789V20.2519C209.282 17.4472 208.372 15.1164 205.687 15.1164C205.138 15.1164 204.312 15.2706 203.833 15.422C203.7 15.4643 203.608 15.5864 203.608 15.7265V19.9068C203.608 20.0373 203.531 20.1548 203.409 20.2022C202.675 20.4886 201.626 20.8129 200.36 20.8129C198.757 20.8129 197.632 20.0361 197.632 18.3098C197.632 15.6773 202.742 12.3975 208.415 12.3975C214.652 12.3975 216.774 15.0299 216.774 20.2954V29.7475C216.774 31.301 217.25 31.4309 218.55 31.4309H219.789C219.966 31.4309 220.109 31.5738 220.109 31.7495V33.042C220.109 33.1663 220.038 33.2776 219.925 33.3301C219.171 33.6804 216.236 34.9701 213.915 34.9701C210.884 34.9701 210.017 33.2437 209.541 30.9987H209.368C208.025 32.8545 206.596 34.9701 203.261 34.9701C199.667 34.9701 196.852 32.5528 196.852 29.0137ZM209.282 29.6108V24.2481C209.282 24.0391 209.083 23.8866 208.88 23.9397L207.635 24.2662C204.82 25.0429 204.084 26.1219 204.084 27.5895C204.084 29.5746 205.47 30.74 207.029 30.74C207.995 30.74 208.736 30.2559 209.184 29.8413C209.248 29.7819 209.281 29.6983 209.281 29.6108H209.282Z" fill="#E30F18"/>
<path d="M133.835 0.743129C133.655 0.563488 133.363 0.563488 133.182 0.743129L128.483 5.42565C128.303 5.60529 128.303 5.89678 128.483 6.07642L133.182 10.7589C133.363 10.9386 133.655 10.9386 133.835 10.7589L138.534 6.07642C138.715 5.89678 138.715 5.60529 138.534 5.42565L133.835 0.743129Z" fill="#E30F18"/>
</svg>
